# xmcd
#
# Track frame offsets:
#	150
#	24002
#	47962
#	71877
#
# Disc length: 1272 seconds
#
# Revision: 0
# Processed by: cddbd v1.5.1PL2 Copyright (c) Steve Scherf et al.
# Submitted via: audiograbber 1.82.02
#
DISCID=2f04f604
DTITLE=Mello K. - Do Me
DYEAR=1993
DGENRE=Rap
TTITLE0=Do Me (Vocal Mix)
TTITLE1=Do Me (T.V. Track Mix)
TTITLE2=Do Me (Vocal Mix Without Shawny)
TTITLE3=Do Me (Instrumental)
EXTD=Cashflow420.com
EXTT0=
EXTT1=
EXTT2=
EXTT3=
PLAYORDER=
